<?xml version="1.0" standalone="no"?>
<!DOCTYPE svg PUBLIC "-//W3C//DTD SVG 20010904//EN"
 "http://www.w3.org/TR/2001/REC-SVG-20010904/DTD/svg10.dtd">
<svg version="1.0" xmlns="http://www.w3.org/2000/svg"
 width="860.000000pt" height="1166.000000pt" viewBox="0 0 860.000000 1166.000000"
 preserveAspectRatio="xMidYMid meet">

<g transform="translate(0.000000,1166.000000) scale(0.100000,-0.100000)"
fill="#c7c7c7" stroke="none">
<path d="M5640 10614 c-96 -39 -211 -131 -245 -194 -44 -85 -33 -316 20 -419
13 -25 42 -68 65 -95 24 -29 39 -56 36 -65 -2 -9 -29 -72 -59 -141 -30 -69
-83 -204 -117 -300 -33 -96 -67 -181 -74 -188 -11 -12 -30 -11 -112 2 -55 8
-180 23 -279 32 -239 23 -318 14 -545 -62 -91 -31 -232 -75 -315 -99 -237 -69
-476 -164 -522 -207 -19 -18 -23 -32 -23 -81 0 -33 -16 -137 -35 -231 -49
-244 -70 -400 -109 -831 -46 -496 -50 -531 -97 -788 -37 -203 -39 -221 -24
-243 13 -20 24 -24 62 -24 44 0 600 -135 616 -149 4 -5 2 -13 -5 -18 -25 -21
-405 -133 -482 -143 -42 -5 -85 -14 -95 -19 -25 -14 -38 -53 -46 -137 -10
-118 -51 -300 -78 -346 -47 -84 -150 -243 -171 -266 -11 -13 -57 -41 -101 -62
-122 -59 -199 -146 -220 -250 -3 -19 -9 -43 -11 -52 -3 -10 -49 -43 -102 -74
-99 -58 -242 -187 -242 -219 0 -24 10 -18 75 44 91 87 246 159 281 130 9 -7
13 -20 11 -29 -12 -47 -539 -845 -564 -855 -10 -4 -56 -15 -103 -25 -198 -41
-367 -173 -416 -324 -24 -75 -30 -80 -100 -67 -83 16 -409 119 -468 148 l-50
25 -130 -40 c-72 -23 -153 -47 -181 -54 -81 -22 -80 -16 -79 -428 1 -334 22
-961 44 -1275 5 -77 12 -214 16 -304 6 -142 9 -166 25 -182 15 -15 28 -18 57
-13 29 4 56 -2 122 -29 109 -45 146 -56 375 -117 173 -46 193 -54 226 -86 20
-20 44 -34 53 -32 9 1 93 57 187 122 119 83 178 131 195 158 17 27 61 62 142
115 487 317 619 409 786 546 38 32 75 57 82 57 16 0 20 -26 34 -190 19 -236
50 -585 60 -675 5 -49 12 -145 16 -212 5 -93 11 -126 23 -137 9 -8 90 -31 181
-50 182 -39 365 -93 558 -162 140 -50 172 -67 172 -89 0 -11 11 -15 38 -15 28
0 66 15 133 51 145 79 160 89 176 128 10 24 144 164 397 416 210 210 402 409
426 444 104 148 98 142 225 206 66 33 248 135 405 226 157 91 314 182 351 202
120 67 130 88 164 349 44 338 124 861 133 870 5 5 13 3 20 -4 17 -21 115 -249
223 -522 55 -138 109 -265 120 -283 16 -25 92 -97 117 -109 1 0 -7 -21 -18
-46 -53 -120 -68 -298 -35 -423 57 -216 280 -365 545 -365 151 0 254 35 358
122 102 85 189 231 211 355 34 185 -94 448 -276 569 -31 21 -91 49 -133 64
-102 35 -99 33 -89 77 14 63 10 121 -16 219 -43 157 -200 595 -323 905 -28 69
-74 193 -102 275 -66 189 -161 433 -251 642 l-71 162 11 108 c6 59 18 184 26
277 8 94 24 218 36 278 17 91 18 112 7 134 -30 62 -121 90 -368 113 -128 12
-144 16 -135 30 3 5 79 46 168 91 177 88 218 113 236 141 26 42 164 622 220
929 33 178 80 419 105 534 81 382 89 440 90 587 1 177 1 178 -146 223 -62 20
-159 41 -234 50 -71 9 -196 32 -279 50 -82 19 -260 50 -395 70 -237 34 -589
110 -610 131 -17 17 120 396 200 554 l29 57 95 5 c121 7 197 40 275 123 130
138 162 325 82 488 -47 97 -89 136 -192 179 -59 24 -92 31 -164 34 -49 2 -97
1 -105 -2z m-782 -1481 c81 -25 194 -58 252 -73 l105 -26 -2 -35 c-10 -172 -8
-210 11 -225 11 -8 23 -14 28 -14 21 0 48 50 74 136 16 53 36 99 44 104 9 4
73 -6 160 -27 234 -55 323 -72 494 -94 149 -19 229 -34 486 -88 52 -11 138
-25 190 -31 104 -12 207 -37 217 -53 7 -11 -20 -34 -157 -133 -124 -90 -190
-151 -190 -176 0 -21 17 -23 39 -4 9 7 70 50 136 95 66 45 139 95 162 112 22
17 45 29 50 26 4 -3 -31 -203 -79 -444 -48 -241 -105 -541 -128 -668 -36 -207
-100 -488 -150 -665 -10 -36 -21 -86 -25 -111 -7 -57 -20 -69 -110 -104 -80
-32 -344 -163 -520 -259 -100 -54 -122 -63 -131 -51 -12 16 30 299 89 600 47
236 68 361 117 709 41 290 42 326 5 296 -22 -18 -31 -60 -70 -335 -54 -379
-71 -485 -120 -736 -24 -126 -54 -301 -66 -387 -12 -86 -28 -163 -35 -171 -10
-11 -27 -9 -106 14 -153 45 -268 73 -368 90 -128 22 -325 64 -625 135 -499
117 -689 152 -1099 200 -98 11 -183 23 -189 27 -12 7 -2 94 23 217 26 121 43
274 80 681 17 187 44 437 60 555 26 185 50 400 50 450 1 37 16 43 56 22 52
-26 182 -64 194 -57 24 15 6 34 -58 64 -38 17 -73 31 -79 31 -18 0 -47 40 -37
50 20 20 212 91 348 129 288 81 568 187 661 250 17 12 38 21 48 21 11 0 85
-21 165 -47z m-575 -2684 c39 -10 39 -11 33 -52 -3 -23 -9 -76 -12 -118 -6
-75 -6 -75 25 -101 39 -34 102 -57 331 -123 206 -59 638 -155 700 -155 80 0
140 97 140 228 l0 43 38 -7 c52 -9 109 -40 128 -69 9 -14 23 -25 31 -25 8 0
55 24 106 54 188 109 244 136 281 136 20 0 83 -13 141 -30 58 -16 163 -41 233
-55 70 -15 131 -30 135 -35 5 -4 -2 -15 -15 -24 -49 -35 -356 -234 -384 -249
-53 -29 -80 -55 -68 -66 13 -14 136 45 254 121 47 30 113 70 147 89 86 46 90
41 75 -103 -6 -62 -16 -157 -21 -212 -6 -54 -12 -100 -14 -103 -3 -2 -47 20
-98 49 -85 48 -100 53 -154 53 -68 -1 -160 -38 -230 -94 -53 -43 -120 -134
-147 -201 l-23 -55 -5 123 c-3 71 -9 122 -15 122 -6 0 -17 -79 -27 -183 -19
-201 -213 -1723 -224 -1750 -8 -21 -26 -21 -64 -2 -41 21 -50 43 -50 128 0
148 -71 339 -153 413 -24 21 -55 49 -70 61 -15 13 -27 30 -27 38 0 8 18 92 40
187 22 94 47 218 55 276 9 57 22 117 30 133 8 15 15 40 15 54 0 27 -40 75 -62
75 -65 0 -285 36 -373 60 -196 56 -307 80 -474 105 -91 14 -169 29 -174 34
-13 13 17 107 55 171 37 62 112 123 177 145 83 28 240 16 281 -21 12 -12 10
-18 -17 -46 -17 -18 -36 -43 -42 -55 -17 -34 -13 -95 9 -130 16 -28 26 -33 56
-33 66 0 118 55 132 143 7 36 11 42 35 45 32 4 153 -30 208 -58 19 -10 61 -39
92 -65 47 -38 57 -43 57 -27 0 11 -24 42 -54 69 -107 98 -214 155 -316 169
-34 5 -62 16 -88 37 -65 52 -118 71 -207 71 -106 0 -179 -23 -257 -82 -80 -60
-139 -147 -163 -238 -10 -38 -23 -75 -30 -82 -16 -17 -166 5 -353 52 -76 19
-160 40 -189 46 -58 13 -133 58 -157 95 -25 38 -100 84 -189 117 -45 16 -87
35 -94 41 -10 9 1 77 48 307 60 296 68 320 107 320 8 0 110 -24 226 -54 116
-30 382 -89 591 -131 435 -87 897 -188 1230 -270 303 -75 372 -82 317 -32 -26
24 -53 32 -325 96 -453 108 -926 209 -1232 265 -408 75 -648 127 -669 147 -13
11 9 20 284 105 135 42 265 87 290 100 51 26 78 29 133 13z m507 -118 c162
-38 358 -82 435 -96 77 -14 145 -28 152 -30 8 -3 8 -19 -4 -62 -8 -32 -18 -62
-23 -67 -9 -9 -345 58 -525 105 -184 47 -367 106 -376 121 -12 19 -11 82 2 95
6 6 18 9 27 7 10 -2 150 -35 312 -73z m1585 -795 c52 -24 119 -89 173 -168 38
-56 102 -186 102 -208 0 -10 -19 -23 -52 -35 -146 -51 -314 -144 -426 -234
-34 -28 -66 -51 -71 -51 -5 0 -19 20 -31 45 -86 177 -59 402 70 591 60 86 137
106 235 60z m-3017 -52 c87 -28 181 -88 199 -126 11 -22 9 -39 -18 -124 -69
-226 -120 -474 -164 -804 -14 -107 -42 -280 -62 -385 -60 -322 -57 -353 33
-339 31 4 51 2 67 -9 22 -14 189 -60 432 -118 66 -16 296 -58 510 -94 215 -35
457 -78 539 -95 82 -16 157 -30 167 -30 10 0 32 12 49 28 29 25 32 34 41 126
11 104 81 546 100 629 7 28 17 47 25 47 25 0 91 -77 122 -142 40 -85 54 -156
50 -257 l-3 -85 -47 -12 c-129 -33 -186 -119 -144 -219 11 -26 24 -36 54 -46
35 -10 45 -9 78 7 34 17 85 72 113 121 8 15 14 14 57 -8 26 -13 52 -32 58 -41
7 -12 0 -92 -27 -280 -20 -145 -40 -311 -43 -370 -6 -96 -5 -108 10 -108 9 0
16 1 16 3 0 22 101 670 105 677 12 20 40 -9 88 -88 62 -105 87 -179 87 -259 0
-47 3 -63 14 -63 34 0 35 98 1 239 -30 122 -68 207 -125 275 -32 38 -40 56
-40 87 0 22 24 221 54 442 30 221 60 454 66 517 14 147 39 358 46 388 9 42 24
19 60 -88 40 -120 119 -286 195 -410 54 -89 131 -258 157 -348 14 -47 14 -62
-1 -165 -10 -61 -17 -136 -17 -165 0 -50 -15 -159 -60 -437 -11 -66 -33 -225
-50 -353 -16 -128 -34 -241 -40 -252 -6 -11 -25 -27 -43 -36 -18 -9 -147 -83
-288 -165 -141 -82 -262 -149 -269 -149 -11 0 -8 116 6 207 5 33 -4 47 -23 35
-6 -4 -22 -65 -37 -137 -15 -71 -30 -138 -32 -147 -5 -17 -41 -34 -51 -25 -2
3 3 40 12 82 27 120 7 223 -65 334 -75 116 -188 171 -354 171 -103 0 -181 -17
-259 -56 -92 -46 -299 -189 -389 -268 -48 -42 -91 -76 -96 -76 -21 0 -44 280
-40 495 1 130 -1 170 -16 212 -9 28 -23 56 -29 61 -7 6 -203 63 -437 127 -319
87 -435 115 -465 112 -22 -3 -87 -19 -145 -36 -98 -28 -160 -38 -160 -26 0 3
16 115 35 248 19 133 39 283 45 333 6 56 19 112 34 145 26 59 68 334 106 699
27 263 77 556 101 603 12 22 15 22 107 -9z m-438 -30 c0 -3 -25 -48 -56 -100
-46 -77 -61 -94 -80 -94 -17 0 -24 6 -24 20 0 39 50 120 92 150 38 28 68 38
68 24z m153 -151 c-13 -70 -26 -134 -28 -141 -7 -19 -52 13 -71 50 -14 28 -13
31 47 128 33 55 64 98 68 95 4 -2 -3 -62 -16 -132z m1843 102 c9 -21 -23 -65
-46 -65 -26 0 -26 34 0 60 24 24 39 25 46 5z m-1982 -301 c19 -19 20 -26 4
-42 -15 -15 -64 -16 -73 -2 -9 14 22 60 40 60 7 0 21 -7 29 -16z m3753 -36
c12 -15 200 -499 205 -525 6 -33 -124 -90 -381 -168 -84 -26 -155 -44 -158
-41 -3 3 -25 50 -48 104 -23 54 -72 153 -109 221 l-68 123 33 34 c68 70 249
178 389 231 93 35 122 40 137 21z m-1878 -109 c80 -22 170 -47 198 -55 51 -14
53 -16 64 -60 15 -57 64 -108 116 -121 35 -8 38 -12 37 -44 -1 -19 -6 -52 -13
-75 l-11 -41 -39 10 c-38 10 -43 9 -110 -36 -74 -49 -90 -51 -115 -12 -21 32
-21 36 14 80 46 58 41 80 -46 179 l-76 86 -77 0 c-47 0 -82 5 -89 12 -12 12
-17 118 -6 118 4 0 72 -18 153 -41z m-1797 -101 c-7 -73 -18 -137 -23 -142 -5
-6 -18 -5 -32 1 -40 18 -140 107 -171 151 -28 41 -28 42 -11 68 15 24 20 26
58 18 63 -12 104 -7 140 14 18 11 37 21 43 21 7 1 6 -40 -4 -131z m2251 -7
c11 -11 -2 -58 -17 -64 -18 -7 -106 52 -106 70 0 13 10 14 58 8 31 -4 61 -10
65 -14z m-2523 -9 c0 -24 130 -142 188 -171 61 -31 63 -33 57 -64 -3 -18 -14
-94 -25 -170 -18 -123 -24 -146 -60 -212 -23 -40 -47 -79 -55 -85 -19 -16 -85
6 -211 71 -107 54 -170 101 -196 146 l-17 30 52 84 c188 299 267 408 267 371z
m975 -275 c36 -26 69 -55 72 -64 4 -11 -11 -32 -50 -68 -69 -64 -73 -87 -21
-145 45 -49 72 -51 154 -10 32 16 65 27 72 25 32 -13 134 -228 122 -259 -3 -9
-29 -20 -62 -26 -106 -22 -118 -44 -87 -160 8 -30 15 -70 15 -87 0 -30 -3 -33
-31 -33 -18 0 -49 5 -70 12 l-39 11 0 57 c0 186 -68 310 -222 402 -67 40 -68
41 -68 84 0 40 24 235 36 297 3 15 13 34 21 42 14 14 19 13 53 -7 22 -13 68
-44 105 -71z m372 81 c4 -7 13 -31 18 -53 13 -51 40 -65 133 -65 67 0 76 2
100 28 15 15 32 36 37 46 10 17 14 17 71 3 33 -9 86 -27 118 -41 l57 -25 -17
-38 c-36 -80 -32 -97 34 -168 33 -35 75 -92 94 -127 l33 -63 45 0 c64 0 70 -7
70 -79 l0 -63 -49 -30 c-43 -27 -50 -36 -61 -84 -7 -30 -26 -85 -42 -123 -32
-74 -32 -114 -2 -147 9 -10 11 -19 5 -23 -12 -8 -486 71 -512 85 -35 18 -23
46 29 63 57 19 138 79 169 125 60 89 3 239 -116 309 -37 21 -60 27 -113 28
-38 1 -72 2 -77 3 -6 0 -24 27 -41 59 -39 74 -87 132 -107 132 -9 0 -49 -18
-88 -39 -54 -30 -75 -37 -84 -28 -17 17 -14 24 39 88 53 64 59 83 35 115 -18
24 -19 78 -1 93 28 24 210 38 223 19z m2831 -191 c14 -16 162 -402 162 -420 0
-22 -28 -41 -135 -95 -183 -91 -348 -139 -374 -109 -24 30 -150 304 -187 409
l-12 36 81 21 c158 41 303 92 372 130 82 45 80 45 93 28z m-4385 -262 c54 -35
120 -62 220 -90 37 -10 57 -21 57 -31 0 -21 -62 -139 -112 -214 -24 -36 -63
-78 -87 -95 -36 -26 -52 -30 -105 -30 -56 0 -69 4 -118 37 -178 118 -204 272
-79 458 75 112 68 109 124 50 27 -28 72 -66 100 -85z m1013 -26 c107 -51 187
-206 169 -325 -13 -88 -59 -65 -81 40 -19 92 -44 136 -110 193 -52 46 -56 52
-49 81 8 38 15 39 71 11z m-1445 -176 c4 -87 10 -110 37 -166 53 -108 214
-239 320 -262 17 -3 32 -13 32 -20 0 -45 -116 -120 -235 -150 -205 -52 -440
33 -508 185 -28 62 -34 162 -13 231 20 72 50 115 111 161 56 43 224 130 240
125 5 -2 12 -49 16 -104z m5024 -65 c37 -85 135 -376 130 -389 -7 -18 -68 -62
-168 -121 -97 -57 -271 -117 -295 -101 -18 11 -183 409 -179 432 1 9 31 21 77
32 86 20 256 90 345 142 33 19 63 36 68 36 4 1 14 -14 22 -31z m-5905 -110
c208 -58 302 -94 335 -128 25 -26 29 -39 36 -132 16 -202 39 -586 44 -743 10
-291 44 -588 102 -891 14 -78 24 -148 20 -156 -7 -19 -192 -148 -212 -148 -38
0 -44 35 -55 355 -12 357 -42 850 -70 1175 -29 333 -40 380 -82 380 -24 0 -24
8 7 -260 28 -247 95 -1321 95 -1521 l0 -77 -112 29 c-62 16 -201 47 -308 70
-107 23 -201 46 -207 52 -8 6 -13 36 -13 81 0 39 -7 177 -15 306 -8 129 -19
381 -25 560 -10 335 -12 368 -35 655 -27 334 -28 355 -13 360 8 3 120 -30 248
-75 129 -44 249 -80 268 -80 29 0 33 3 30 23 -3 24 4 21 -243 101 -81 26 -130
47 -130 55 0 21 114 61 155 55 19 -3 100 -23 180 -46z m1610 -60 c-1 -43 -29
-242 -46 -316 -9 -41 -24 -82 -33 -91 -10 -10 -59 -32 -111 -50 -248 -87 -482
-214 -739 -404 -58 -43 -109 -76 -115 -74 -16 5 -50 482 -36 499 3 4 46 -13
95 -37 133 -67 259 -88 386 -65 89 16 255 104 319 169 54 55 104 138 115 194
3 15 30 54 59 86 30 32 62 70 71 85 21 32 35 33 35 4z m2556 -189 c10 -17 -23
-46 -38 -31 -8 8 -8 15 2 27 15 18 26 19 36 4z m1930 -195 c16 -62 16 -68 0
-119 -22 -69 -98 -155 -169 -189 -97 -48 -207 -44 -255 7 -19 20 -82 157 -82
177 0 4 25 12 55 18 103 21 231 81 365 172 54 36 59 32 86 -66z m-3767 -88
c146 -41 313 -87 371 -101 58 -15 111 -32 118 -38 9 -7 12 -59 12 -198 0 -103
7 -264 15 -356 59 -648 131 -1320 145 -1359 6 -14 10 -34 10 -44 0 -24 -128
-126 -141 -113 -12 12 -54 435 -74 746 -8 131 -17 248 -20 260 -2 12 -20 177
-40 367 -35 342 -57 469 -84 478 -11 4 -13 -7 -8 -54 3 -33 11 -131 17 -219 6
-88 22 -288 35 -445 14 -157 29 -361 35 -455 5 -93 19 -258 30 -365 11 -107
20 -214 20 -238 0 -54 18 -56 -220 28 -193 68 -370 119 -500 146 -47 9 -91 22
-98 29 -8 7 -16 62 -22 151 -6 76 -17 207 -25 289 -8 83 -24 260 -35 395 -22
267 -33 355 -86 743 -36 258 -36 259 -16 280 27 30 34 59 23 91 -8 20 -8 26 4
26 34 0 267 -78 463 -156 208 -82 272 -98 272 -71 0 24 -43 55 -130 96 -81 37
-330 131 -349 131 -5 0 -14 7 -21 15 -22 27 23 18 299 -59z m-679 -128 c5 -13
18 -144 28 -293 16 -221 17 -274 7 -291 -13 -20 -182 -124 -203 -124 -5 0 -18
35 -27 78 -45 202 -116 325 -244 420 -39 29 -71 55 -71 58 0 11 198 97 309
135 137 46 187 50 201 17z m4676 -179 c82 -30 178 -128 230 -235 35 -70 39
-86 39 -153 0 -67 -4 -85 -36 -152 -61 -126 -163 -204 -304 -230 -137 -25
-330 25 -429 112 -78 68 -118 224 -97 378 5 43 17 97 26 119 15 37 19 40 66
45 63 8 134 40 224 102 l70 48 76 -6 c42 -4 103 -16 135 -28z m-5180 -57 c122
-79 200 -200 260 -399 25 -86 26 -93 11 -116 -18 -27 -394 -289 -417 -291 -12
-1 -16 17 -22 84 -15 202 -133 388 -295 466 -40 20 -73 38 -73 42 0 12 434
252 456 252 11 0 47 -17 80 -38z m2667 -173 c86 -13 114 -27 155 -74 98 -111
94 -216 -19 -420 -70 -126 -182 -280 -204 -280 -16 0 -22 19 -42 120 -43 220
-157 398 -299 465 -35 17 -64 34 -64 38 0 19 165 110 245 135 86 28 132 31
228 16z m-3135 -145 c84 -41 125 -85 181 -193 51 -99 73 -183 69 -274 l-3 -72
-124 -82 c-87 -57 -129 -79 -137 -72 -6 5 -15 28 -18 52 -54 330 -92 649 -81
667 11 18 41 11 113 -26z m2710 -100 c97 -48 176 -164 244 -357 47 -134 61
-221 42 -258 -16 -32 -271 -279 -288 -279 -7 0 -19 38 -30 98 -20 109 -71 261
-109 325 -38 63 -92 122 -168 183 -38 30 -69 63 -69 72 0 21 57 84 157 176 68
62 75 66 121 66 32 0 66 -9 100 -26z m-279 -381 c95 -97 140 -191 196 -411 39
-152 41 -145 -77 -272 -56 -60 -106 -110 -110 -110 -5 0 -11 6 -13 13 -3 10
-50 465 -81 785 -4 44 -2 62 6 62 7 0 42 -30 79 -67z"/>
<path d="M4045 8580 c-11 -18 5 -28 111 -66 159 -57 349 -102 659 -155 315
-54 566 -112 827 -190 187 -56 417 -111 430 -103 14 9 9 33 -9 42 -10 5 -54
17 -98 27 -44 9 -163 44 -265 76 -259 83 -546 153 -815 200 -280 49 -476 90
-615 129 -58 16 -123 32 -145 35 -22 4 -47 9 -57 11 -9 3 -19 0 -23 -6z"/>
<path d="M3931 8336 c-14 -17 3 -60 75 -183 30 -50 54 -96 54 -102 0 -15 -74
-67 -129 -92 -55 -24 -65 -38 -44 -61 26 -28 127 -25 189 7 27 14 56 25 66 25
9 0 43 -30 75 -67 54 -61 126 -123 144 -123 4 0 21 12 38 26 54 45 42 81 -62
191 -22 23 -36 46 -32 52 3 6 43 30 88 52 119 60 147 83 147 123 0 37 -34 76
-66 76 -10 0 -79 -30 -152 -67 l-133 -66 -107 111 c-59 62 -114 112 -123 112
-9 0 -22 -6 -28 -14z"/>
<path d="M6207 8219 c-37 -30 -49 -59 -24 -59 19 0 85 48 97 70 17 32 -29 26
-73 -11z"/>
<path d="M5063 8025 c-11 -29 7 -75 55 -148 27 -39 52 -77 55 -84 4 -7 -14
-28 -45 -53 -63 -49 -75 -74 -53 -106 20 -31 42 -30 127 6 82 35 68 40 181
-62 41 -38 82 -68 91 -68 28 0 66 46 66 80 0 25 -13 45 -57 91 -66 70 -66 76
17 125 61 36 89 69 90 105 0 60 -65 76 -140 33 -25 -14 -68 -39 -97 -55 l-52
-30 -98 91 c-96 88 -128 105 -140 75z"/>
<path d="M6401 7830 c-53 -8 -80 -38 -111 -120 -67 -180 -64 -380 6 -500 25
-41 69 -63 115 -57 66 9 105 41 144 120 70 142 71 322 3 469 -45 97 -57 105
-157 88z m105 -548 c-27 -52 -92 -91 -123 -74 -12 7 -8 10 16 15 17 4 50 25
74 47 23 22 43 40 45 40 1 0 -4 -12 -12 -28z"/>
<path d="M3886 7279 c-22 -55 -38 -141 -34 -189 3 -41 6 -47 41 -64 22 -10
289 -81 595 -158 612 -153 669 -163 703 -118 16 22 55 142 74 227 6 30 4 34
-27 48 -18 8 -116 33 -218 54 -102 22 -252 56 -335 75 -82 19 -283 61 -445 91
-162 31 -305 59 -318 62 -18 4 -25 -1 -36 -28z m394 -93 c362 -74 909 -201
922 -214 13 -13 -32 -173 -50 -180 -20 -7 -110 10 -357 69 -655 156 -838 199
-854 199 -9 0 -26 6 -36 14 -17 12 -17 18 -6 77 16 77 26 99 49 99 9 0 159
-29 332 -64z"/>
<path d="M3702 5998 c-12 -6 -40 -38 -62 -71 -47 -70 -50 -106 -19 -202 16
-51 30 -73 66 -105 71 -62 145 -66 222 -10 102 74 109 205 18 334 -39 55 -161
84 -225 54z"/>
<path d="M4225 5855 c-62 -61 0 -245 82 -245 57 0 113 56 113 112 0 29 -45
117 -72 141 -31 26 -93 22 -123 -8z"/>
</g>
</svg>
